<svg width="260" height="71" viewBox="0 0 260 71" fill="none" xmlns="http://www.w3.org/2000/svg">
<path fill-rule="evenodd" clip-rule="evenodd" d="M34.936 61C31.8575 66.9406 25.6528 71 18.5 71C8.28271 71 0 62.7173 0 52.5C0 44.8787 4.60852 38.3337 11.1908 35.5C4.60852 32.6663 0 26.1213 0 18.5C0 8.28271 8.28271 0 18.5 0C26.0474 0 32.5392 4.5196 35.4166 11H224.583C227.461 4.5196 233.953 0 241.5 0C251.717 0 260 8.28271 260 18.5C260 26.1213 255.391 32.6663 248.809 35.5C255.391 38.3337 260 44.8787 260 52.5C260 62.7173 251.717 71 241.5 71C234.347 71 228.142 66.9406 225.064 61H34.936Z" fill="white"/>
</svg>
